<mxfile host="app.diagrams.net" modified="2021-05-21T09:08:13.366Z" agent="5.0 (Windows NT 10.0; Win64; x64) AppleWebKit/537.36 (KHTML, like Gecko) Chrome/90.0.4430.212 Safari/537.36" etag="0OmFyA5cQ27f5-oiz37z" version="14.6.13" type="github">
  <diagram id="VlgJWXHjnkdOSfZhmLRd" name="Page-1">
    <mxGraphModel dx="1038" dy="548" grid="1" gridSize="10" guides="1" tooltips="1" connect="1" arrows="1" fold="1" page="1" pageScale="1" pageWidth="850" pageHeight="1100" math="0" shadow="0">
      <root>
        <mxCell id="0" />
        <mxCell id="1" parent="0" />
        <mxCell id="HFrr8dKNH874aeNnL6vB-60" style="edgeStyle=orthogonalEdgeStyle;rounded=0;orthogonalLoop=1;jettySize=auto;html=1;entryX=0.438;entryY=-0.077;entryDx=0;entryDy=0;entryPerimeter=0;" edge="1" parent="1" source="HFrr8dKNH874aeNnL6vB-45" target="HFrr8dKNH874aeNnL6vB-46">
          <mxGeometry relative="1" as="geometry" />
        </mxCell>
        <mxCell id="HFrr8dKNH874aeNnL6vB-45" value="" style="shape=image;html=1;verticalAlign=top;verticalLabelPosition=bottom;labelBackgroundColor=#ffffff;imageAspect=0;aspect=fixed;image=https://cdn4.iconfinder.com/data/icons/essential-app-2/16/record-round-circle-dot-128.png" vertex="1" parent="1">
          <mxGeometry x="355" y="100" width="60" height="60" as="geometry" />
        </mxCell>
        <mxCell id="HFrr8dKNH874aeNnL6vB-61" style="edgeStyle=orthogonalEdgeStyle;rounded=0;orthogonalLoop=1;jettySize=auto;html=1;entryX=0.5;entryY=0;entryDx=0;entryDy=0;" edge="1" parent="1" source="HFrr8dKNH874aeNnL6vB-46" target="HFrr8dKNH874aeNnL6vB-47">
          <mxGeometry relative="1" as="geometry" />
        </mxCell>
        <mxCell id="HFrr8dKNH874aeNnL6vB-46" value="Login" style="rounded=1;whiteSpace=wrap;html=1;" vertex="1" parent="1">
          <mxGeometry x="335" y="200" width="105" height="50" as="geometry" />
        </mxCell>
        <mxCell id="HFrr8dKNH874aeNnL6vB-62" style="edgeStyle=orthogonalEdgeStyle;rounded=0;orthogonalLoop=1;jettySize=auto;html=1;entryX=0.5;entryY=0;entryDx=0;entryDy=0;" edge="1" parent="1" source="HFrr8dKNH874aeNnL6vB-47" target="HFrr8dKNH874aeNnL6vB-48">
          <mxGeometry relative="1" as="geometry" />
        </mxCell>
        <mxCell id="HFrr8dKNH874aeNnL6vB-47" value="Authentication" style="rounded=1;whiteSpace=wrap;html=1;" vertex="1" parent="1">
          <mxGeometry x="300" y="280" width="180" height="60" as="geometry" />
        </mxCell>
        <mxCell id="HFrr8dKNH874aeNnL6vB-63" style="edgeStyle=orthogonalEdgeStyle;rounded=0;orthogonalLoop=1;jettySize=auto;html=1;" edge="1" parent="1" source="HFrr8dKNH874aeNnL6vB-48">
          <mxGeometry relative="1" as="geometry">
            <mxPoint x="387.5" y="509.9999999999999" as="targetPoint" />
          </mxGeometry>
        </mxCell>
        <mxCell id="HFrr8dKNH874aeNnL6vB-106" style="edgeStyle=orthogonalEdgeStyle;rounded=0;orthogonalLoop=1;jettySize=auto;html=1;entryX=1;entryY=0.5;entryDx=0;entryDy=0;" edge="1" parent="1" source="HFrr8dKNH874aeNnL6vB-48" target="HFrr8dKNH874aeNnL6vB-46">
          <mxGeometry relative="1" as="geometry">
            <Array as="points">
              <mxPoint x="530" y="410" />
              <mxPoint x="530" y="225" />
            </Array>
          </mxGeometry>
        </mxCell>
        <mxCell id="HFrr8dKNH874aeNnL6vB-48" value="Check" style="rhombus;whiteSpace=wrap;html=1;" vertex="1" parent="1">
          <mxGeometry x="347.5" y="370" width="80" height="80" as="geometry" />
        </mxCell>
        <mxCell id="HFrr8dKNH874aeNnL6vB-49" value="" style="shape=link;html=1;" edge="1" parent="1">
          <mxGeometry width="100" relative="1" as="geometry">
            <mxPoint x="30" y="510" as="sourcePoint" />
            <mxPoint x="780" y="510" as="targetPoint" />
          </mxGeometry>
        </mxCell>
        <mxCell id="HFrr8dKNH874aeNnL6vB-69" style="edgeStyle=orthogonalEdgeStyle;rounded=0;orthogonalLoop=1;jettySize=auto;html=1;entryX=0.5;entryY=0;entryDx=0;entryDy=0;" edge="1" parent="1" source="HFrr8dKNH874aeNnL6vB-52" target="HFrr8dKNH874aeNnL6vB-59">
          <mxGeometry relative="1" as="geometry" />
        </mxCell>
        <mxCell id="HFrr8dKNH874aeNnL6vB-70" style="edgeStyle=orthogonalEdgeStyle;rounded=0;orthogonalLoop=1;jettySize=auto;html=1;entryX=0.25;entryY=0;entryDx=0;entryDy=0;" edge="1" parent="1" source="HFrr8dKNH874aeNnL6vB-52" target="HFrr8dKNH874aeNnL6vB-58">
          <mxGeometry relative="1" as="geometry" />
        </mxCell>
        <mxCell id="HFrr8dKNH874aeNnL6vB-52" value="ADD Room" style="rounded=1;whiteSpace=wrap;html=1;" vertex="1" parent="1">
          <mxGeometry x="80" y="550" width="100" height="60" as="geometry" />
        </mxCell>
        <mxCell id="HFrr8dKNH874aeNnL6vB-71" style="edgeStyle=orthogonalEdgeStyle;rounded=0;orthogonalLoop=1;jettySize=auto;html=1;entryX=0.695;entryY=0.003;entryDx=0;entryDy=0;entryPerimeter=0;" edge="1" parent="1" source="HFrr8dKNH874aeNnL6vB-53" target="HFrr8dKNH874aeNnL6vB-58">
          <mxGeometry relative="1" as="geometry" />
        </mxCell>
        <mxCell id="HFrr8dKNH874aeNnL6vB-72" style="edgeStyle=orthogonalEdgeStyle;rounded=0;orthogonalLoop=1;jettySize=auto;html=1;entryX=0.298;entryY=0.025;entryDx=0;entryDy=0;entryPerimeter=0;" edge="1" parent="1" source="HFrr8dKNH874aeNnL6vB-53" target="HFrr8dKNH874aeNnL6vB-56">
          <mxGeometry relative="1" as="geometry" />
        </mxCell>
        <mxCell id="HFrr8dKNH874aeNnL6vB-53" value="ADD Doctor" style="rounded=1;whiteSpace=wrap;html=1;" vertex="1" parent="1">
          <mxGeometry x="255" y="550" width="100" height="60" as="geometry" />
        </mxCell>
        <mxCell id="HFrr8dKNH874aeNnL6vB-73" style="edgeStyle=orthogonalEdgeStyle;rounded=0;orthogonalLoop=1;jettySize=auto;html=1;" edge="1" parent="1" source="HFrr8dKNH874aeNnL6vB-54" target="HFrr8dKNH874aeNnL6vB-55">
          <mxGeometry relative="1" as="geometry" />
        </mxCell>
        <mxCell id="HFrr8dKNH874aeNnL6vB-54" value="ADD Patients" style="rounded=1;whiteSpace=wrap;html=1;" vertex="1" parent="1">
          <mxGeometry x="505" y="550" width="105" height="60" as="geometry" />
        </mxCell>
        <mxCell id="HFrr8dKNH874aeNnL6vB-83" style="edgeStyle=orthogonalEdgeStyle;rounded=0;orthogonalLoop=1;jettySize=auto;html=1;entryX=1;entryY=0.5;entryDx=0;entryDy=0;" edge="1" parent="1" source="HFrr8dKNH874aeNnL6vB-55" target="HFrr8dKNH874aeNnL6vB-77">
          <mxGeometry relative="1" as="geometry" />
        </mxCell>
        <mxCell id="HFrr8dKNH874aeNnL6vB-84" style="edgeStyle=orthogonalEdgeStyle;rounded=0;orthogonalLoop=1;jettySize=auto;html=1;entryX=0;entryY=0.5;entryDx=0;entryDy=0;" edge="1" parent="1" source="HFrr8dKNH874aeNnL6vB-55" target="HFrr8dKNH874aeNnL6vB-76">
          <mxGeometry relative="1" as="geometry" />
        </mxCell>
        <mxCell id="HFrr8dKNH874aeNnL6vB-85" style="edgeStyle=orthogonalEdgeStyle;rounded=0;orthogonalLoop=1;jettySize=auto;html=1;entryX=0.5;entryY=0;entryDx=0;entryDy=0;" edge="1" parent="1" source="HFrr8dKNH874aeNnL6vB-55" target="HFrr8dKNH874aeNnL6vB-75">
          <mxGeometry relative="1" as="geometry" />
        </mxCell>
        <mxCell id="HFrr8dKNH874aeNnL6vB-55" value="ADD Bill" style="rounded=1;whiteSpace=wrap;html=1;" vertex="1" parent="1">
          <mxGeometry x="497.5" y="640" width="120" height="60" as="geometry" />
        </mxCell>
        <mxCell id="HFrr8dKNH874aeNnL6vB-97" style="edgeStyle=orthogonalEdgeStyle;rounded=0;orthogonalLoop=1;jettySize=auto;html=1;" edge="1" parent="1" source="HFrr8dKNH874aeNnL6vB-56">
          <mxGeometry relative="1" as="geometry">
            <mxPoint x="390" y="1060" as="targetPoint" />
          </mxGeometry>
        </mxCell>
        <mxCell id="HFrr8dKNH874aeNnL6vB-56" value="EDIT Detail" style="rounded=1;whiteSpace=wrap;html=1;" vertex="1" parent="1">
          <mxGeometry x="320" y="640" width="140" height="60" as="geometry" />
        </mxCell>
        <mxCell id="HFrr8dKNH874aeNnL6vB-90" style="edgeStyle=orthogonalEdgeStyle;rounded=0;orthogonalLoop=1;jettySize=auto;html=1;entryX=0.5;entryY=0;entryDx=0;entryDy=0;" edge="1" parent="1" source="HFrr8dKNH874aeNnL6vB-57" target="HFrr8dKNH874aeNnL6vB-80">
          <mxGeometry relative="1" as="geometry" />
        </mxCell>
        <mxCell id="HFrr8dKNH874aeNnL6vB-91" style="edgeStyle=orthogonalEdgeStyle;rounded=0;orthogonalLoop=1;jettySize=auto;html=1;exitX=0.5;exitY=1;exitDx=0;exitDy=0;" edge="1" parent="1" source="HFrr8dKNH874aeNnL6vB-57" target="HFrr8dKNH874aeNnL6vB-82">
          <mxGeometry relative="1" as="geometry" />
        </mxCell>
        <mxCell id="HFrr8dKNH874aeNnL6vB-92" style="edgeStyle=orthogonalEdgeStyle;rounded=0;orthogonalLoop=1;jettySize=auto;html=1;entryX=0.5;entryY=0;entryDx=0;entryDy=0;" edge="1" parent="1" source="HFrr8dKNH874aeNnL6vB-57" target="HFrr8dKNH874aeNnL6vB-81">
          <mxGeometry relative="1" as="geometry" />
        </mxCell>
        <mxCell id="HFrr8dKNH874aeNnL6vB-57" value="Reports" style="rounded=1;whiteSpace=wrap;html=1;" vertex="1" parent="1">
          <mxGeometry x="700" y="640" width="120" height="60" as="geometry" />
        </mxCell>
        <mxCell id="HFrr8dKNH874aeNnL6vB-96" style="edgeStyle=orthogonalEdgeStyle;rounded=0;orthogonalLoop=1;jettySize=auto;html=1;" edge="1" parent="1" source="HFrr8dKNH874aeNnL6vB-58">
          <mxGeometry relative="1" as="geometry">
            <mxPoint x="225" y="1060" as="targetPoint" />
          </mxGeometry>
        </mxCell>
        <mxCell id="HFrr8dKNH874aeNnL6vB-58" value="DELETE" style="rounded=1;whiteSpace=wrap;html=1;" vertex="1" parent="1">
          <mxGeometry x="160" y="640" width="130" height="60" as="geometry" />
        </mxCell>
        <mxCell id="HFrr8dKNH874aeNnL6vB-95" style="edgeStyle=orthogonalEdgeStyle;rounded=0;orthogonalLoop=1;jettySize=auto;html=1;" edge="1" parent="1" source="HFrr8dKNH874aeNnL6vB-59">
          <mxGeometry relative="1" as="geometry">
            <mxPoint x="160" y="1060" as="targetPoint" />
            <Array as="points">
              <mxPoint x="80" y="1000" />
              <mxPoint x="160" y="1000" />
            </Array>
          </mxGeometry>
        </mxCell>
        <mxCell id="HFrr8dKNH874aeNnL6vB-59" value="CHANGE Rate" style="rounded=1;whiteSpace=wrap;html=1;" vertex="1" parent="1">
          <mxGeometry y="640" width="130" height="60" as="geometry" />
        </mxCell>
        <mxCell id="HFrr8dKNH874aeNnL6vB-64" value="" style="endArrow=classic;html=1;entryX=0.5;entryY=0;entryDx=0;entryDy=0;" edge="1" parent="1" target="HFrr8dKNH874aeNnL6vB-52">
          <mxGeometry width="50" height="50" relative="1" as="geometry">
            <mxPoint x="190" y="510" as="sourcePoint" />
            <mxPoint x="240" y="510" as="targetPoint" />
          </mxGeometry>
        </mxCell>
        <mxCell id="HFrr8dKNH874aeNnL6vB-65" value="" style="endArrow=classic;html=1;entryX=0.433;entryY=-0.031;entryDx=0;entryDy=0;entryPerimeter=0;" edge="1" parent="1" target="HFrr8dKNH874aeNnL6vB-53">
          <mxGeometry width="50" height="50" relative="1" as="geometry">
            <mxPoint x="290" y="510" as="sourcePoint" />
            <mxPoint x="140" y="559.9999999999999" as="targetPoint" />
          </mxGeometry>
        </mxCell>
        <mxCell id="HFrr8dKNH874aeNnL6vB-66" value="" style="endArrow=classic;html=1;entryX=0.5;entryY=0;entryDx=0;entryDy=0;" edge="1" parent="1" target="HFrr8dKNH874aeNnL6vB-54">
          <mxGeometry width="50" height="50" relative="1" as="geometry">
            <mxPoint x="550" y="510" as="sourcePoint" />
            <mxPoint x="150" y="569.9999999999999" as="targetPoint" />
          </mxGeometry>
        </mxCell>
        <mxCell id="HFrr8dKNH874aeNnL6vB-67" value="" style="endArrow=classic;html=1;entryX=0.553;entryY=-0.031;entryDx=0;entryDy=0;entryPerimeter=0;" edge="1" parent="1" target="HFrr8dKNH874aeNnL6vB-57">
          <mxGeometry width="50" height="50" relative="1" as="geometry">
            <mxPoint x="700" y="510" as="sourcePoint" />
            <mxPoint x="567.5" y="559.9999999999999" as="targetPoint" />
          </mxGeometry>
        </mxCell>
        <mxCell id="HFrr8dKNH874aeNnL6vB-93" style="edgeStyle=orthogonalEdgeStyle;rounded=0;orthogonalLoop=1;jettySize=auto;html=1;entryX=0.5;entryY=0;entryDx=0;entryDy=0;" edge="1" parent="1" source="HFrr8dKNH874aeNnL6vB-74" target="HFrr8dKNH874aeNnL6vB-89">
          <mxGeometry relative="1" as="geometry" />
        </mxCell>
        <mxCell id="HFrr8dKNH874aeNnL6vB-74" value="PaymentBill" style="rounded=1;whiteSpace=wrap;html=1;" vertex="1" parent="1">
          <mxGeometry x="497.5" y="890" width="120" height="60" as="geometry" />
        </mxCell>
        <mxCell id="HFrr8dKNH874aeNnL6vB-87" style="edgeStyle=orthogonalEdgeStyle;rounded=0;orthogonalLoop=1;jettySize=auto;html=1;entryX=0.5;entryY=0;entryDx=0;entryDy=0;" edge="1" parent="1" source="HFrr8dKNH874aeNnL6vB-75" target="HFrr8dKNH874aeNnL6vB-74">
          <mxGeometry relative="1" as="geometry">
            <Array as="points">
              <mxPoint x="555" y="885" />
              <mxPoint x="558" y="885" />
            </Array>
          </mxGeometry>
        </mxCell>
        <mxCell id="HFrr8dKNH874aeNnL6vB-75" value="DoctorsBill" style="rounded=1;whiteSpace=wrap;html=1;" vertex="1" parent="1">
          <mxGeometry x="520" y="790" width="70" height="60" as="geometry" />
        </mxCell>
        <mxCell id="HFrr8dKNH874aeNnL6vB-88" style="edgeStyle=orthogonalEdgeStyle;rounded=0;orthogonalLoop=1;jettySize=auto;html=1;entryX=0.75;entryY=0;entryDx=0;entryDy=0;" edge="1" parent="1" source="HFrr8dKNH874aeNnL6vB-76" target="HFrr8dKNH874aeNnL6vB-74">
          <mxGeometry relative="1" as="geometry">
            <Array as="points">
              <mxPoint x="625" y="870" />
              <mxPoint x="588" y="870" />
            </Array>
          </mxGeometry>
        </mxCell>
        <mxCell id="HFrr8dKNH874aeNnL6vB-76" value="MedicineBill" style="rounded=1;whiteSpace=wrap;html=1;" vertex="1" parent="1">
          <mxGeometry x="590" y="720" width="70" height="60" as="geometry" />
        </mxCell>
        <mxCell id="HFrr8dKNH874aeNnL6vB-86" style="edgeStyle=orthogonalEdgeStyle;rounded=0;orthogonalLoop=1;jettySize=auto;html=1;" edge="1" parent="1" source="HFrr8dKNH874aeNnL6vB-77" target="HFrr8dKNH874aeNnL6vB-74">
          <mxGeometry relative="1" as="geometry">
            <Array as="points">
              <mxPoint x="488" y="880" />
              <mxPoint x="540" y="880" />
            </Array>
          </mxGeometry>
        </mxCell>
        <mxCell id="HFrr8dKNH874aeNnL6vB-77" value="RoomBill" style="rounded=1;whiteSpace=wrap;html=1;" vertex="1" parent="1">
          <mxGeometry x="450" y="720" width="75" height="60" as="geometry" />
        </mxCell>
        <mxCell id="HFrr8dKNH874aeNnL6vB-99" style="edgeStyle=orthogonalEdgeStyle;rounded=0;orthogonalLoop=1;jettySize=auto;html=1;" edge="1" parent="1" source="HFrr8dKNH874aeNnL6vB-80">
          <mxGeometry relative="1" as="geometry">
            <mxPoint x="680" y="1060" as="targetPoint" />
          </mxGeometry>
        </mxCell>
        <mxCell id="HFrr8dKNH874aeNnL6vB-80" value="Patient" style="rounded=1;whiteSpace=wrap;html=1;" vertex="1" parent="1">
          <mxGeometry x="660" y="790" width="70" height="60" as="geometry" />
        </mxCell>
        <mxCell id="HFrr8dKNH874aeNnL6vB-100" style="edgeStyle=orthogonalEdgeStyle;rounded=0;orthogonalLoop=1;jettySize=auto;html=1;" edge="1" parent="1" source="HFrr8dKNH874aeNnL6vB-81">
          <mxGeometry relative="1" as="geometry">
            <mxPoint x="730" y="1060" as="targetPoint" />
          </mxGeometry>
        </mxCell>
        <mxCell id="HFrr8dKNH874aeNnL6vB-81" value="Bill" style="rounded=1;whiteSpace=wrap;html=1;" vertex="1" parent="1">
          <mxGeometry x="720" y="860" width="70" height="60" as="geometry" />
        </mxCell>
        <mxCell id="HFrr8dKNH874aeNnL6vB-101" style="edgeStyle=orthogonalEdgeStyle;rounded=0;orthogonalLoop=1;jettySize=auto;html=1;" edge="1" parent="1" source="HFrr8dKNH874aeNnL6vB-82">
          <mxGeometry relative="1" as="geometry">
            <mxPoint x="780" y="1060" as="targetPoint" />
          </mxGeometry>
        </mxCell>
        <mxCell id="HFrr8dKNH874aeNnL6vB-82" value="Payment" style="rounded=1;whiteSpace=wrap;html=1;" vertex="1" parent="1">
          <mxGeometry x="770" y="790" width="70" height="60" as="geometry" />
        </mxCell>
        <mxCell id="HFrr8dKNH874aeNnL6vB-98" style="edgeStyle=orthogonalEdgeStyle;rounded=0;orthogonalLoop=1;jettySize=auto;html=1;" edge="1" parent="1" source="HFrr8dKNH874aeNnL6vB-89">
          <mxGeometry relative="1" as="geometry">
            <mxPoint x="558" y="1060" as="targetPoint" />
          </mxGeometry>
        </mxCell>
        <mxCell id="HFrr8dKNH874aeNnL6vB-89" value="DischargePatient" style="rounded=1;whiteSpace=wrap;html=1;" vertex="1" parent="1">
          <mxGeometry x="497.5" y="970" width="120" height="60" as="geometry" />
        </mxCell>
        <mxCell id="HFrr8dKNH874aeNnL6vB-94" value="" style="shape=link;html=1;" edge="1" parent="1">
          <mxGeometry width="100" relative="1" as="geometry">
            <mxPoint x="70" y="1060" as="sourcePoint" />
            <mxPoint x="820" y="1060" as="targetPoint" />
          </mxGeometry>
        </mxCell>
        <mxCell id="HFrr8dKNH874aeNnL6vB-102" value="" style="endArrow=classic;html=1;" edge="1" parent="1">
          <mxGeometry width="50" height="50" relative="1" as="geometry">
            <mxPoint x="430" y="1060" as="sourcePoint" />
            <mxPoint x="430" y="1090" as="targetPoint" />
          </mxGeometry>
        </mxCell>
        <mxCell id="HFrr8dKNH874aeNnL6vB-105" style="edgeStyle=orthogonalEdgeStyle;rounded=0;orthogonalLoop=1;jettySize=auto;html=1;entryX=0.5;entryY=0;entryDx=0;entryDy=0;" edge="1" parent="1" source="HFrr8dKNH874aeNnL6vB-103" target="HFrr8dKNH874aeNnL6vB-104">
          <mxGeometry relative="1" as="geometry" />
        </mxCell>
        <mxCell id="HFrr8dKNH874aeNnL6vB-103" value="LogOut" style="rounded=1;whiteSpace=wrap;html=1;" vertex="1" parent="1">
          <mxGeometry x="390" y="1090" width="70" height="40" as="geometry" />
        </mxCell>
        <mxCell id="HFrr8dKNH874aeNnL6vB-104" value="" style="shape=image;html=1;verticalAlign=top;verticalLabelPosition=bottom;labelBackgroundColor=#ffffff;imageAspect=0;aspect=fixed;image=https://cdn4.iconfinder.com/data/icons/ionicons/512/icon-ios7-circle-filled-128.png" vertex="1" parent="1">
          <mxGeometry x="400" y="1170" width="60" height="60" as="geometry" />
        </mxCell>
        <mxCell id="HFrr8dKNH874aeNnL6vB-107" value="&lt;font style=&quot;font-size: 18px&quot;&gt;Valid&lt;/font&gt;" style="text;html=1;align=center;verticalAlign=middle;resizable=0;points=[];autosize=1;strokeColor=none;" vertex="1" parent="1">
          <mxGeometry x="405" y="480" width="50" height="20" as="geometry" />
        </mxCell>
        <mxCell id="HFrr8dKNH874aeNnL6vB-108" value="&lt;font style=&quot;font-size: 18px&quot;&gt;InValid&lt;/font&gt;" style="text;html=1;align=center;verticalAlign=middle;resizable=0;points=[];autosize=1;strokeColor=none;" vertex="1" parent="1">
          <mxGeometry x="450" y="380" width="70" height="20" as="geometry" />
        </mxCell>
        <mxCell id="HFrr8dKNH874aeNnL6vB-109" value="&lt;font style=&quot;font-size: 35px&quot;&gt;Activity Diagram - Hospital Management System&lt;/font&gt;" style="text;html=1;align=center;verticalAlign=middle;resizable=0;points=[];autosize=1;strokeColor=none;" vertex="1" parent="1">
          <mxGeometry x="40" y="30" width="770" height="30" as="geometry" />
        </mxCell>
      </root>
    </mxGraphModel>
  </diagram>
</mxfile>
